<svg width="1000" height="1000" viewBox="0 0 1000 1000" fill="none" xmlns="http://www.w3.org/2000/svg">
<rect width="1000" height="1000" fill="#97F0E5"/>
<path d="M199 752H815V808H199V752Z" fill="black"/>
<path d="M759 192H815V248H759V192Z" fill="black"/>
<path d="M591 192H647V248H591V192Z" fill="black"/>
<path d="M479 192H535V248H479V192Z" fill="black"/>
<path d="M367 192H423V248H367V192Z" fill="black"/>
<path d="M591 304H647V360H591V304Z" fill="black"/>
<path d="M647 360H703V416H647V360Z" fill="black"/>
<path d="M591 416H647V472H591V416Z" fill="black"/>
<path d="M759 304H815V360H759V304Z" fill="black"/>
<path d="M703 696H759V752H703V696Z" fill="black"/>
<path d="M703 640H759V696H703V640Z" fill="black"/>
<path d="M367 472H759V528H367V472Z" fill="black"/>
<path d="M647 248H759V304H647V248Z" fill="black"/>
<path d="M703 416H815V472H703V416Z" fill="black"/>
<path d="M479 528H591V584H479V528Z" fill="black"/>
<path d="M815 752H759V528H815V752Z" fill="black"/>
<path d="M199 752H255V248H199V752Z" fill="black"/>
<path d="M255 752H479V248H255V752Z" fill="black"/>
<path d="M647 752H703V528H647V752Z" fill="black"/>
<path d="M479 752H647V584H479V752Z" fill="black"/>
</svg>
